<?xml version="1.0" encoding="UTF-8" standalone="no"?>
<!-- Created with Inkscape (http://www.inkscape.org/) -->

<svg
   width="500"
   height="500"
   viewBox="0 0 132.29167 132.29167"
   version="1.1"
   id="svg58"
   inkscape:version="1.1.2 (b8e25be833, 2022-02-05)"
   sodipodi:docname="R3_TQ1.svg"
   xmlns:inkscape="http://www.inkscape.org/namespaces/inkscape"
   xmlns:sodipodi="http://sodipodi.sourceforge.net/DTD/sodipodi-0.dtd"
   xmlns="http://www.w3.org/2000/svg"
   xmlns:svg="http://www.w3.org/2000/svg">
  <sodipodi:namedview
     id="namedview60"
     pagecolor="#ffffff"
     bordercolor="#666666"
     borderopacity="1.0"
     inkscape:pageshadow="2"
     inkscape:pageopacity="0.0"
     inkscape:pagecheckerboard="true"
     inkscape:document-units="px"
     showgrid="false"
     units="px"
     inkscape:zoom="1.1426846"
     inkscape:cx="139.58357"
     inkscape:cy="290.1063"
     inkscape:window-width="1920"
     inkscape:window-height="1001"
     inkscape:window-x="-9"
     inkscape:window-y="-9"
     inkscape:window-maximized="1"
     inkscape:current-layer="layer1" />
  <defs
     id="defs55">
    <filter
       inkscape:collect="always"
       style="color-interpolation-filters:sRGB"
       id="filter79622"
       x="-0.76799995"
       y="-0.76800004"
       width="2.5359999"
       height="2.5360001">
      <feGaussianBlur
         inkscape:collect="always"
         stdDeviation="42.333333"
         id="feGaussianBlur79624" />
    </filter>
  </defs>
  <g
     inkscape:label="Layer 1"
     inkscape:groupmode="layer"
     id="layer1"
     style="display:inline">
    <rect
       style="opacity:0.6;mix-blend-mode:normal;fill:#865ec2;fill-opacity:1;stroke:none;stroke-width:1.33621;stroke-linecap:round;stroke-linejoin:miter;stroke-miterlimit:4;stroke-dasharray:none;stroke-opacity:1;filter:url(#filter79622)"
       id="rect19947"
       width="132.29167"
       height="132.29166"
       x="0"
       y="0"
       transform="matrix(0.59148271,0,0,0.59148271,27.021724,27.021726)"
       ry="66.145828"
       rx="66.145836" />
    <text
       xml:space="preserve"
       style="font-style:normal;font-variant:normal;font-weight:normal;font-stretch:normal;font-size:35.2778px;line-height:0;font-family:Arial;-inkscape-font-specification:Arial;text-align:center;text-anchor:middle;fill:#555555;fill-opacity:1;stroke:none;stroke-width:0.264583"
       x="25.945002"
       y="55.313412"
       id="text2315"><tspan
         style="font-style:normal;font-variant:normal;font-weight:normal;font-stretch:normal;font-size:14.1111px;line-height:0.55;font-family:Arial;-inkscape-font-specification:Arial;text-align:center;text-anchor:middle;fill:#555555;fill-opacity:1;stroke-width:0.264583"
         sodipodi:role="line"
         x="25.945002"
         y="55.313412"
         id="tspan33108">Rank</tspan><tspan
         sodipodi:role="line"
         style="font-style:normal;font-variant:normal;font-weight:normal;font-stretch:normal;font-size:35.2778px;line-height:1.25;font-family:Arial;-inkscape-font-specification:Arial;text-align:center;text-anchor:middle;fill:#555555;fill-opacity:1;stroke-width:0.264583"
         x="25.945002"
         y="87.079399"
         id="tspan13509">E</tspan></text>
    <text
       xml:space="preserve"
       style="font-style:normal;font-variant:normal;font-weight:normal;font-stretch:normal;font-size:35.2778px;line-height:0;font-family:Arial;-inkscape-font-specification:Arial;text-align:center;text-anchor:middle;display:inline;fill:#555555;fill-opacity:1;stroke:none;stroke-width:0.264583"
       x="105.91264"
       y="55.492554"
       id="text2315-5"><tspan
         style="font-style:normal;font-variant:normal;font-weight:normal;font-stretch:normal;font-size:14.1111px;line-height:0.55;font-family:Arial;-inkscape-font-specification:Arial;text-align:center;text-anchor:middle;fill:#555555;fill-opacity:1;stroke-width:0.264583"
         sodipodi:role="line"
         id="tspan67389"
         x="105.91264"
         y="55.492554">TQ</tspan><tspan
         style="font-style:normal;font-variant:normal;font-weight:normal;font-stretch:normal;font-size:35.2778px;line-height:1.25;font-family:Arial;-inkscape-font-specification:Arial;text-align:center;text-anchor:middle;fill:#555555;fill-opacity:1;stroke-width:0.264583"
         sodipodi:role="line"
         id="tspan60869"
         x="105.91264"
         y="65.209915" /></text>
    <text
       xml:space="preserve"
       style="font-style:normal;font-weight:normal;font-size:10.5833px;line-height:1.25;font-family:sans-serif;fill:#000000;fill-opacity:1;stroke:none;stroke-width:0.264583"
       x="-9.6255121"
       y="77.567703"
       id="text4091"><tspan
         sodipodi:role="line"
         id="tspan4089"
         style="stroke-width:0.264583"
         x="-9.6255121"
         y="77.567703" /></text>
    <path
       id="rect924-8-8-7"
       style="display:inline;fill:#ee0022;fill-opacity:1;stroke:none;stroke-width:0.801754;stroke-linecap:round;stroke-linejoin:miter;stroke-miterlimit:4;stroke-dasharray:none;stroke-opacity:1"
       d="M 0,0 V 132.29168 H 132.29166 V 0 Z M 5.2916668,5.2916668 H 127 V 127 H 5.2916668 Z"
       sodipodi:nodetypes="cccccccccc" />
    <rect
       style="display:inline;fill:none;fill-opacity:1;stroke:#555555;stroke-width:0.79719;stroke-linecap:square;stroke-linejoin:miter;stroke-miterlimit:4;stroke-dasharray:none;stroke-opacity:1"
       id="rect1041"
       width="131.49448"
       height="131.49435"
       x="0.39859501"
       y="0.39859501" />
    <text
       xml:space="preserve"
       style="font-style:normal;font-variant:normal;font-weight:normal;font-stretch:normal;font-size:35.2778px;line-height:1.25;font-family:Arial;-inkscape-font-specification:Arial;display:inline;fill:#b3b3b3;fill-opacity:1;stroke:none;stroke-width:0.264583;stroke-miterlimit:4;stroke-dasharray:none;stroke-opacity:1"
       x="15.447565"
       y="88.185699"
       id="text24792-9-6"><tspan
         sodipodi:role="line"
         id="tspan24790-1-4"
         style="font-style:normal;font-variant:normal;font-weight:bold;font-stretch:normal;font-size:35.2778px;font-family:Arial;-inkscape-font-specification:'Arial Bold';fill:#b3b3b3;fill-opacity:1;stroke:none;stroke-width:0.264583;stroke-miterlimit:4;stroke-dasharray:none;stroke-opacity:1"
         x="15.447565"
         y="88.185699">E</tspan></text>
    <text
       xml:space="preserve"
       style="font-style:normal;font-variant:normal;font-weight:normal;font-stretch:normal;font-size:35.2778px;line-height:1.25;font-family:Arial;-inkscape-font-specification:Arial;display:inline;fill:#ee0022;fill-opacity:1;stroke:#555555;stroke-width:0.264583;stroke-miterlimit:4;stroke-dasharray:none;stroke-opacity:1"
       x="14.389226"
       y="87.127274"
       id="text24792-99"><tspan
         sodipodi:role="line"
         id="tspan24790-8"
         style="font-style:normal;font-variant:normal;font-weight:bold;font-stretch:normal;font-size:35.2778px;font-family:Arial;-inkscape-font-specification:'Arial Bold';fill:#ee0022;fill-opacity:1;stroke:#ffffff;stroke-width:0.264583;stroke-miterlimit:4;stroke-dasharray:none;stroke-opacity:1"
         x="14.389226"
         y="87.127274">E</tspan></text>
    <g
       id="g1539"
       transform="matrix(0.09719389,0,0,0.09719388,72.395261,32.323072)"
       style="display:inline;fill:#b3b3b3;fill-opacity:1">
      <g
         id="g1537"
         style="fill:#b3b3b3;fill-opacity:1">
        <path
           d="m 482.7,412.9 c -12.9,-7.3 -25.5,-17.6 -41,-17.3 -10.2,0.2 -17.9,10.7 -17.2,20.2 -2.8,0.1 -5.7,0.1 -8.5,0.3 -21.9,1 -43.7,4.1 -65.5,6.3 -21.3,2.1 -42.4,5.1 -63.6,8.1 -11.6,1.7 -23,3.9 -34.5,5.7 -5.7,0.9 -10.8,2.4 -16.3,4.1 -2.4,0.7 -4.7,1.6 -7.1,2.4 -3.4,1.1 -5,2.9 -7.8,4.8 -3,2 -3.8,6.4 -0.4,8.6 2.1,1.4 3.5,3.5 6.1,4.3 2.4,0.7 4.9,1.4 7.3,2 6,1.6 12.6,2.9 18.8,2.9 11,0.1 22.1,-0.1 33.1,-1.2 22,-2.1 43.9,-4.5 65.8,-6.7 21.8,-2.3 43.6,-5.2 65.4,-6.7 19.2,-1.3 38.5,-1.1 57.7,-3.6 8.1,-1.1 14.9,-5.7 16.8,-14 1.9,-8.3 -2.1,-16.2 -9.1,-20.2 z"
           id="path1535"
           style="fill:#b3b3b3;fill-opacity:1" />
      </g>
    </g>
    <g
       id="g7-4-0"
       transform="matrix(0.09719389,0,0,0.09719388,71.072341,31.000155)"
       style="display:inline;fill:#865ec2;fill-opacity:1;stroke:#ffffff;stroke-width:2.72222;stroke-miterlimit:4;stroke-dasharray:none;stroke-opacity:1">
      <g
         id="g5-2-2"
         style="fill:#865ec2;fill-opacity:1;stroke:#ffffff;stroke-width:2.72222;stroke-miterlimit:4;stroke-dasharray:none;stroke-opacity:1">
        <path
           d="m 482.7,412.9 c -12.9,-7.3 -25.5,-17.6 -41,-17.3 -10.2,0.2 -17.9,10.7 -17.2,20.2 -2.8,0.1 -5.7,0.1 -8.5,0.3 -21.9,1 -43.7,4.1 -65.5,6.3 -21.3,2.1 -42.4,5.1 -63.6,8.1 -11.6,1.7 -23,3.9 -34.5,5.7 -5.7,0.9 -10.8,2.4 -16.3,4.1 -2.4,0.7 -4.7,1.6 -7.1,2.4 -3.4,1.1 -5,2.9 -7.8,4.8 -3,2 -3.8,6.4 -0.4,8.6 2.1,1.4 3.5,3.5 6.1,4.3 2.4,0.7 4.9,1.4 7.3,2 6,1.6 12.6,2.9 18.8,2.9 11,0.1 22.1,-0.1 33.1,-1.2 22,-2.1 43.9,-4.5 65.8,-6.7 21.8,-2.3 43.6,-5.2 65.4,-6.7 19.2,-1.3 38.5,-1.1 57.7,-3.6 8.1,-1.1 14.9,-5.7 16.8,-14 1.9,-8.3 -2.1,-16.2 -9.1,-20.2 z"
           id="path3-7-7"
           style="fill:#865ec2;fill-opacity:1;stroke:#ffffff;stroke-width:2.72222;stroke-miterlimit:4;stroke-dasharray:none;stroke-opacity:1" />
      </g>
    </g>
  </g>
</svg>
