<?xml version="1.0" encoding="UTF-8" standalone="no"?>
<!-- Uploaded to: SVG Repo, www.svgrepo.com, Generator: SVG Repo Mixer Tools -->

<svg
   fill="#000000"
   width="800px"
   height="800px"
   viewBox="0 0 24 24"
   version="1.1"
   id="svg4"
   sodipodi:docname="change.svg"
   inkscape:version="1.1.2 (b8e25be833, 2022-02-05)"
   xmlns:inkscape="http://www.inkscape.org/namespaces/inkscape"
   xmlns:sodipodi="http://sodipodi.sourceforge.net/DTD/sodipodi-0.dtd"
   xmlns="http://www.w3.org/2000/svg"
   xmlns:svg="http://www.w3.org/2000/svg">
  <defs
     id="defs8" />
  <sodipodi:namedview
     id="namedview6"
     pagecolor="#ffffff"
     bordercolor="#666666"
     borderopacity="1.0"
     inkscape:pageshadow="2"
     inkscape:pageopacity="0.0"
     inkscape:pagecheckerboard="0"
     showgrid="false"
     inkscape:zoom="1.01"
     inkscape:cx="399.50495"
     inkscape:cy="400.49505"
     inkscape:window-width="1920"
     inkscape:window-height="1001"
     inkscape:window-x="-9"
     inkscape:window-y="-9"
     inkscape:window-maximized="1"
     inkscape:current-layer="svg4" />
  <path
     fill-rule="evenodd"
     d="m 4.8,8.4 h 9 c 0.994112,0 1.8,0.8058878 1.8,1.8 v 9 c 0,0.994112 -0.805888,1.8 -1.8,1.8 h -9 C 3.8058874,21 3,20.194112 3,19.2 v -9 C 3,9.2058878 3.8058874,8.4 4.8,8.4 Z m 0,1.8 v 9 h 9 v -9 z m 11.7,8.1 V 8.4 C 16.5,7.9029438 16.097057,7.5 15.6,7.5 H 5.7 C 5.7,6.5058874 6.5058874,5.7 7.5,5.7 h 9 c 0.994112,0 1.8,0.8058874 1.8,1.8 v 9 c 0,0.994112 -0.805888,1.8 -1.8,1.8 z m 2.7,-2.7 V 5.7 C 19.2,5.2029438 18.797057,4.8 18.3,4.8 H 8.4 C 8.4,3.8058874 9.2058878,3 10.2,3 h 9 C 20.194112,3 21,3.8058874 21,4.8 v 9 c 0,0.994112 -0.805888,1.8 -1.8,1.8 z"
     id="path2"
     style="fill:#555555;fill-opacity:1;stroke-width:0.9" />
</svg>
