<?xml version="1.0" encoding="UTF-8" standalone="no"?>
<!-- Uploaded to: SVG Repo, www.svgrepo.com, Generator: SVG Repo Mixer Tools -->

<svg
   version="1.1"
   id="_x32_"
   viewBox="0 0 512 512"
   xml:space="preserve"
   sodipodi:docname="chemical.svg"
   inkscape:version="1.1.2 (b8e25be833, 2022-02-05)"
   xmlns:inkscape="http://www.inkscape.org/namespaces/inkscape"
   xmlns:sodipodi="http://sodipodi.sourceforge.net/DTD/sodipodi-0.dtd"
   xmlns="http://www.w3.org/2000/svg"
   xmlns:svg="http://www.w3.org/2000/svg"><defs
   id="defs25" /><sodipodi:namedview
   id="namedview23"
   pagecolor="#ffffff"
   bordercolor="#666666"
   borderopacity="1.0"
   inkscape:pageshadow="2"
   inkscape:pageopacity="0.0"
   inkscape:pagecheckerboard="0"
   showgrid="false"
   inkscape:zoom="1.578125"
   inkscape:cx="255.68317"
   inkscape:cy="256.31683"
   inkscape:window-width="1920"
   inkscape:window-height="1001"
   inkscape:window-x="-9"
   inkscape:window-y="-9"
   inkscape:window-maximized="1"
   inkscape:current-layer="_x32_" />
<style
   type="text/css"
   id="style2">
	.st0{fill:#000000;}
</style>
<g
   id="g20"
   style="fill:#555555;fill-opacity:1">
	<polygon
   class="st0"
   points="84.182,371.191 151.254,409.922 158.842,396.774 91.77,358.059  "
   id="polygon4"
   style="fill:#555555;fill-opacity:1" />
	<rect
   x="214.537"
   y="287.175"
   class="st0"
   width="15.172"
   height="77.446"
   id="rect6"
   style="fill:#555555;fill-opacity:1" />
	<polygon
   class="st0"
   points="84.182,280.605 91.77,293.738 158.842,255.014 151.254,241.883  "
   id="polygon8"
   style="fill:#555555;fill-opacity:1" />
	<polygon
   class="st0"
   points="286.082,371.191 353.158,409.922 360.746,396.774 293.666,358.059  "
   id="polygon10"
   style="fill:#555555;fill-opacity:1" />
	<rect
   x="416.438"
   y="287.175"
   class="st0"
   width="15.176"
   height="77.446"
   id="rect12"
   style="fill:#555555;fill-opacity:1" />
	<polygon
   class="st0"
   points="286.082,280.605 293.666,293.738 360.746,255.014 353.158,241.883  "
   id="polygon14"
   style="fill:#555555;fill-opacity:1" />
	<path
   class="st0"
   d="M468.017,381.265V261.779l-103.483-59.755v-70.146h-15.172v70.146l-93.364,53.915l-100.949-58.287L51.57,257.4   L7.588,231.995L0,245.135l43.983,25.396v110.734L0,406.654l7.588,13.148l43.975-25.396l103.486,59.739l100.949-58.279   l100.952,58.279l103.488-59.739l43.974,25.396L512,406.654L468.017,381.265z M245.883,378.337l-90.834,52.439l-90.833-52.439   V273.451l90.829-52.447l90.838,52.447V378.337z M447.784,378.337l-90.834,52.439l-90.833-52.439V273.451l90.833-52.447   l90.834,52.447V378.337z"
   id="path16"
   style="fill:#555555;fill-opacity:1" />
	<path
   class="st0"
   d="M331.051,122.104h13.89c0.654,0,1.091-0.438,1.091-1.095V97.421c0-0.446,0.22-0.657,0.653-0.657h24.278   c0.438,0,0.657,0.211,0.657,0.657v23.588c0,0.657,0.438,1.095,1.095,1.095h13.886c0.657,0,1.091-0.438,1.091-1.095V58.959   c0-0.658-0.434-1.104-1.091-1.104h-13.886c-0.657,0-1.095,0.446-1.095,1.104v22.825c0,0.438-0.219,0.657-0.657,0.657h-24.278   c-0.433,0-0.653-0.219-0.653-0.657V58.959c0-0.658-0.438-1.104-1.091-1.104h-13.89c-0.661,0-1.095,0.446-1.095,1.104v62.051   C329.956,121.667,330.39,122.104,331.051,122.104z"
   id="path18"
   style="fill:#555555;fill-opacity:1" />
</g>
</svg>
