<?xml version="1.0" encoding="UTF-8" standalone="no"?>
<!-- Uploaded to: SVG Repo, www.svgrepo.com, Generator: SVG Repo Mixer Tools -->

<svg
   width="800px"
   height="800px"
   viewBox="0 0 64 64"
   version="1.1"
   id="svg37"
   sodipodi:docname="compost.svg"
   inkscape:version="1.1.2 (b8e25be833, 2022-02-05)"
   xmlns:inkscape="http://www.inkscape.org/namespaces/inkscape"
   xmlns:sodipodi="http://sodipodi.sourceforge.net/DTD/sodipodi-0.dtd"
   xmlns="http://www.w3.org/2000/svg"
   xmlns:svg="http://www.w3.org/2000/svg">
  <sodipodi:namedview
     id="namedview39"
     pagecolor="#ffffff"
     bordercolor="#666666"
     borderopacity="1.0"
     inkscape:pageshadow="2"
     inkscape:pageopacity="0.0"
     inkscape:pagecheckerboard="0"
     showgrid="false"
     inkscape:zoom="0.71417785"
     inkscape:cx="399.76037"
     inkscape:cy="401.16058"
     inkscape:window-width="1920"
     inkscape:window-height="1001"
     inkscape:window-x="-9"
     inkscape:window-y="-9"
     inkscape:window-maximized="1"
     inkscape:current-layer="svg37" />
  <defs
     id="defs4">
    <style
       id="style2">.cls-1{fill:none;stroke:#000000;stroke-linejoin:round;stroke-width:2px;}</style>
  </defs>
  <title
     id="title6" />
  <path
     class="cls-1"
     d="m 55,56.006884 a 7,7 0 0 0 0,-14 7.3,7.3 0 0 0 -0.94,0.07 5,5 0 0 0 -3.06,-1.07 4.78,4.78 0 0 0 -0.76,0.08 6,6 0 0 0 -10.86,0.83 6,6 0 0 0 -8.88,0.09 6,6 0 0 0 -9.83,1.22 6,6 0 0 0 -9,2 6,6 0 1 0 -3.67,10.78 z"
     id="path8"
     style="fill:none;fill-opacity:1;stroke:#555555;stroke-opacity:1" />
  <path
     class="cls-1"
     d="m 55,46.006884 a 3,3 0 0 1 0,6"
     id="path10"
     style="fill:none;fill-opacity:1;stroke:#555555;stroke-opacity:1" />
  <rect
     class="cls-1"
     height="12.73"
     transform="rotate(-45)"
     width="8.4899998"
     x="23.335577"
     y="43.139225"
     id="rect12"
     style="fill:none;fill-opacity:1;stroke:#555555;stroke-opacity:1" />
  <polyline
     class="cls-1"
     points="50 23 35 38 38 41 53 26"
     id="polyline14"
     style="fill:none;fill-opacity:1;stroke:#555555;stroke-opacity:1"
     transform="translate(0,-5.9931161)" />
  <polyline
     class="cls-1"
     points="38 47 41 44 38 41"
     id="polyline16"
     style="fill:none;fill-opacity:1;stroke:#555555;stroke-opacity:1"
     transform="translate(0,-5.9931161)" />
  <polyline
     class="cls-1"
     points="35 38 32 35 22 45 22 48"
     id="polyline18"
     style="fill:none;fill-opacity:1;stroke:#555555;stroke-opacity:1"
     transform="translate(0,-5.9931161)" />
  <line
     class="cls-1"
     x1="50"
     x2="59"
     y1="11.006884"
     y2="20.006884"
     id="line20"
     style="fill:none;fill-opacity:1;stroke:#555555;stroke-opacity:1" />
</svg>
