<?xml version="1.0" encoding="UTF-8" standalone="no"?>
<!-- Created with Inkscape (http://www.inkscape.org/) -->

<svg
   width="500"
   height="500"
   viewBox="0 0 132.29167 132.29167"
   version="1.1"
   id="svg58"
   inkscape:version="1.1.2 (b8e25be833, 2022-02-05)"
   sodipodi:docname="currency_stamp.svg"
   xmlns:inkscape="http://www.inkscape.org/namespaces/inkscape"
   xmlns:sodipodi="http://sodipodi.sourceforge.net/DTD/sodipodi-0.dtd"
   xmlns="http://www.w3.org/2000/svg"
   xmlns:svg="http://www.w3.org/2000/svg">
  <sodipodi:namedview
     id="namedview60"
     pagecolor="#ffffff"
     bordercolor="#666666"
     borderopacity="1.0"
     inkscape:pageshadow="2"
     inkscape:pageopacity="0.0"
     inkscape:pagecheckerboard="true"
     inkscape:document-units="px"
     showgrid="false"
     units="px"
     inkscape:zoom="0.60019314"
     inkscape:cx="204.10097"
     inkscape:cy="265.74779"
     inkscape:window-width="1920"
     inkscape:window-height="1001"
     inkscape:window-x="-9"
     inkscape:window-y="-9"
     inkscape:window-maximized="1"
     inkscape:current-layer="g11655-5-4-9-4-2-6-8-0"
     showguides="false" />
  <defs
     id="defs55" />
  <g
     inkscape:label="Layer 1 copy"
     inkscape:groupmode="layer"
     id="g4908"
     style="display:inline">
    <ellipse
       style="fill:none;fill-opacity:1;stroke:#777777;stroke-width:2.59917;stroke-miterlimit:4;stroke-dasharray:none;stroke-opacity:1"
       id="ellipse4890"
       cx="66.145836"
       cy="66.145828"
       rx="64.846252"
       ry="64.846245" />
    <circle
       style="fill:none;fill-opacity:1;stroke:#777777;stroke-width:7.77241;stroke-miterlimit:4;stroke-dasharray:none;stroke-opacity:1"
       id="circle4892"
       cx="66.145836"
       cy="66.145836"
       r="60.936714" />
    <g
       id="g11655-5-4-9-4-2-6-8-0"
       transform="matrix(0.75251874,0,0,0.75251874,-65.953685,6.7097415)"
       style="display:inline">
      <g
         id="guides_1_"
         style="fill:none;fill-opacity:1;stroke:#555555;stroke-opacity:1"
         transform="matrix(2.9299751,0,0,2.9299751,-68.811669,-150.7268)" />
      <g
         id="Mug"
         style="fill:none;fill-opacity:1;stroke:#555555;stroke-opacity:1"
         transform="matrix(2.9299751,0,0,2.9299751,-68.811669,-150.7268)" />
      <g
         id="Mug_2"
         style="fill:none;fill-opacity:1;stroke:#555555;stroke-opacity:1"
         transform="matrix(2.9299751,0,0,2.9299751,-68.811669,-150.7268)" />
      <g
         id="Can"
         style="fill:none;fill-opacity:1;stroke:#555555;stroke-opacity:1"
         transform="matrix(2.9299751,0,0,2.9299751,-68.811669,-150.7268)" />
      <g
         id="Hop"
         style="fill:none;fill-opacity:1;stroke:#555555;stroke-opacity:1"
         transform="matrix(2.9299751,0,0,2.9299751,-68.811669,-150.7268)" />
      <g
         id="Barley"
         style="fill:none;fill-opacity:1;stroke:#555555;stroke-opacity:1"
         transform="matrix(2.9299751,0,0,2.9299751,-68.811669,-150.7268)" />
      <g
         id="guides_1_-0"
         style="fill:none;fill-opacity:1;stroke:#555555;stroke-opacity:1"
         transform="matrix(2.9299751,0,0,2.9299751,-137.35103,-99.175827)" />
      <g
         id="Mug-1"
         style="fill:none;fill-opacity:1;stroke:#555555;stroke-opacity:1"
         transform="matrix(2.9299751,0,0,2.9299751,-137.35103,-99.175827)" />
      <g
         id="Mug_2-3"
         style="fill:none;fill-opacity:1;stroke:#555555;stroke-opacity:1"
         transform="matrix(2.9299751,0,0,2.9299751,-137.35103,-99.175827)" />
      <g
         id="Can-6"
         style="fill:none;fill-opacity:1;stroke:#555555;stroke-opacity:1"
         transform="matrix(2.9299751,0,0,2.9299751,-137.35103,-99.175827)" />
      <g
         id="g1317"
         transform="matrix(0.4423155,0,0,0.4423155,174.08893,60.643158)">
        <g
           id="g10"
           style="fill:none;fill-opacity:1;stroke:#555555;stroke-width:6;stroke-miterlimit:4;stroke-dasharray:none;stroke-opacity:1"
           transform="matrix(2.9299751,0,0,2.9299751,-137.35103,-99.175827)">
          <path
             class="st4"
             d="m 45,4.7 c 1.6,-1.5 4.3,-1.5 5.9,0 l 1.8,1.7 c 1.6,1.5 4.7,2.1 6.7,1.3 l 2.3,-0.8 c 2.1,-0.7 4.5,0.3 5.5,2.3 l 1.1,2.2 c 0.9,2 3.5,3.7 5.7,3.8 l 2.5,0.1 c 2.2,0.1 4.1,2 4.2,4.2 l 0.1,2.5 c 0.1,2.2 1.8,4.8 3.8,5.7 l 2.2,1.1 c 2,0.9 3,3.4 2.3,5.5 l -0.8,2.3 c -0.7,2.1 -0.1,5.1 1.3,6.7 l 1.7,1.8 c 1.5,1.6 1.5,4.3 0,5.9 l -1.7,1.8 c -1.5,1.6 -2.1,4.7 -1.3,6.7 l 0.8,2.3 c 0.7,2.1 -0.3,4.5 -2.3,5.5 l -2.2,1.1 c -2,0.9 -3.7,3.5 -3.8,5.7 l -0.1,2.5 c -0.1,2.2 -2,4.1 -4.2,4.2 L 74,80.9 c -2.2,0.1 -4.8,1.8 -5.7,3.8 l -1.1,2.2 c -0.9,2 -3.4,3 -5.5,2.3 l -2.3,-0.8 c -2.1,-0.7 -5.1,-0.1 -6.7,1.3 L 51,91.3 c -1.6,1.5 -4.3,1.5 -5.9,0 l -1.8,-1.7 c -1.6,-1.5 -4.7,-2.1 -6.7,-1.3 l -2.3,0.8 c -2.1,0.7 -4.5,-0.3 -5.5,-2.3 l -1.1,-2.2 c -0.9,-2 -3.5,-3.7 -5.7,-3.8 l -2.5,-0.1 c -2.2,-0.1 -4.1,-2 -4.2,-4.2 L 15.2,74 C 15.1,71.8 13.4,69.2 11.4,68.3 L 9.2,67.2 c -2,-0.9 -3,-3.4 -2.3,-5.5 L 7.7,59.4 C 8.4,57.3 7.8,54.3 6.4,52.7 L 4.7,51 C 3.2,49.4 3.2,46.7 4.7,45.1 L 6.4,43.3 C 7.9,41.7 8.5,38.6 7.7,36.6 L 6.9,34.3 C 6.2,32.2 7.2,29.8 9.2,28.8 l 2.2,-1.1 c 2,-0.9 3.7,-3.5 3.8,-5.7 l 0.1,-2.5 c 0.1,-2.2 2,-4.1 4.2,-4.2 L 22,15.2 c 2.2,-0.1 4.8,-1.8 5.7,-3.8 l 1.1,-2.2 c 0.9,-2 3.4,-3 5.5,-2.3 l 2.3,0.8 c 2.1,0.7 5.1,0.1 6.7,-1.3 z"
             id="path8"
             style="fill:none;fill-opacity:1;stroke:#555555;stroke-width:6;stroke-miterlimit:4;stroke-dasharray:none;stroke-opacity:1" />
        </g>
        <path
           class="st3"
           d="m 94.117006,41.462978 c 0,50.102574 -40.726654,90.829232 -90.8292277,90.829232 -50.1025743,0 -90.8292253,-40.726658 -90.8292253,-90.829232"
           id="path12"
           style="fill:none;fill-opacity:1;stroke:#555555;stroke-width:17.5799;stroke-linecap:round;stroke-miterlimit:10;stroke-opacity:1" />
        <path
           class="st3"
           d="m -82.853487,12.456224 c 1.17199,-3.8089666 2.63697,-7.3249366 4.39496,-10.8409076"
           id="path14"
           style="fill:none;fill-opacity:1;stroke:#555555;stroke-width:17.5799;stroke-linecap:round;stroke-miterlimit:10;stroke-opacity:1" />
        <path
           class="st3"
           d="m 3.2877783,-49.366247 c 34.5737057,0 64.4594517,19.33783 79.9883197,47.4655904 1.464988,2.929978 2.929975,5.859954 4.101965,8.789929 0.585995,1.464987 1.17199,2.636977 1.464988,4.1019646"
           id="path16"
           style="fill:none;fill-opacity:1;stroke:#555555;stroke-width:17.5799;stroke-linecap:round;stroke-miterlimit:10;stroke-opacity:1" />
      </g>
      <g
         id="Hop-2"
         style="fill:none;fill-opacity:1;stroke:#555555;stroke-opacity:1"
         transform="matrix(2.9299751,0,0,2.9299751,-137.35103,-99.175827)" />
      <g
         id="Barley-8"
         style="fill:none;fill-opacity:1;stroke:#555555;stroke-opacity:1"
         transform="matrix(2.9299751,0,0,2.9299751,-137.35103,-99.175827)" />
    </g>
  </g>
</svg>
