<?xml version="1.0" encoding="UTF-8" standalone="no"?>
<!-- Uploaded to: SVG Repo, www.svgrepo.com, Generator: SVG Repo Mixer Tools -->

<svg
   width="960"
   height="800"
   viewBox="0 0 28.8 24"
   fill="none"
   version="1.1"
   id="svg4"
   sodipodi:docname="dislike.svg"
   inkscape:version="1.1.2 (b8e25be833, 2022-02-05)"
   xmlns:inkscape="http://www.inkscape.org/namespaces/inkscape"
   xmlns:sodipodi="http://sodipodi.sourceforge.net/DTD/sodipodi-0.dtd"
   xmlns="http://www.w3.org/2000/svg"
   xmlns:svg="http://www.w3.org/2000/svg">
  <defs
     id="defs8" />
  <sodipodi:namedview
     id="namedview6"
     pagecolor="#ffffff"
     bordercolor="#666666"
     borderopacity="1.0"
     inkscape:pageshadow="2"
     inkscape:pageopacity="0.0"
     inkscape:pagecheckerboard="0"
     showgrid="false"
     inkscape:zoom="0.505"
     inkscape:cx="161.38614"
     inkscape:cy="400.9901"
     inkscape:window-width="1920"
     inkscape:window-height="1001"
     inkscape:window-x="-9"
     inkscape:window-y="-9"
     inkscape:window-maximized="1"
     inkscape:current-layer="svg4"
     showguides="false" />
  <path
     fill-rule="evenodd"
     clip-rule="evenodd"
     d="m 12.90001,20.5 c 0,1.5 1.482,2.5 2.64,2.5 0.806,0 0.869,-0.613 0.993,-1.82 0.055,-0.53 0.121,-1.174 0.267,-1.93 0.386,-2.002 1.72,-4.56 2.996,-5.325 V 8 c 0.004,-2.25 -0.746,-3 -3.996,-3 h -3.773 c -2.176,0 -2.703,1.432 -2.899,1.964 A 15.85,15.85 0 0 1 9.11501,7 c -0.114,0.306 -0.358,0.546 -0.638,0.82 -0.31,0.306 -0.664,0.653 -0.927,1.18 -0.311,0.623 -0.27,1.177 -0.233,1.67 0.023,0.299 0.044,0.575 -0.017,0.83 -0.064,0.27 -0.146,0.475 -0.225,0.671 -0.143,0.356 -0.275,0.686 -0.275,1.329 0,1.5 0.748,2.498 2.315,2.498 h 4.185 c 0,0 -0.4,3.002 -0.4,4.502 z m 10.4,-5.5 a 1.5,1.5 0 0 0 1.5,-1.5 v -7 a 1.5,1.5 0 0 0 -3,0 v 7 a 1.5,1.5 0 0 0 1.5,1.5 z"
     fill="#000000"
     id="path2"
     style="fill:#800000" />
</svg>
