<?xml version="1.0" encoding="UTF-8" standalone="no"?>
<!-- Uploaded to: SVG Repo, www.svgrepo.com, Generator: SVG Repo Mixer Tools -->

<svg
   width="800px"
   height="800px"
   viewBox="0 0 512 512"
   version="1.1"
   id="svg4"
   sodipodi:docname="fertilizer.svg"
   inkscape:version="1.1.2 (b8e25be833, 2022-02-05)"
   xmlns:inkscape="http://www.inkscape.org/namespaces/inkscape"
   xmlns:sodipodi="http://sodipodi.sourceforge.net/DTD/sodipodi-0.dtd"
   xmlns="http://www.w3.org/2000/svg"
   xmlns:svg="http://www.w3.org/2000/svg">
  <defs
     id="defs8" />
  <sodipodi:namedview
     id="namedview6"
     pagecolor="#ffffff"
     bordercolor="#666666"
     borderopacity="1.0"
     inkscape:pageshadow="2"
     inkscape:pageopacity="0.0"
     inkscape:pagecheckerboard="0"
     showgrid="false"
     inkscape:zoom="1.01"
     inkscape:cx="399.50495"
     inkscape:cy="400.49505"
     inkscape:window-width="1920"
     inkscape:window-height="1001"
     inkscape:window-x="-9"
     inkscape:window-y="-9"
     inkscape:window-maximized="1"
     inkscape:current-layer="svg4" />
  <path
     fill="#000000"
     d="M 241.1,21.91 C 151.4,21.76 68.11,24.38 69.16,30.18 L 91.24,66.32 C 150.6,61.22 207.2,59.37 263.9,59.75 317.1,60.1 370.4,62.42 426,65.84 L 457.2,32.56 C 452.7,25.82 342.8,22.08 241.1,21.91 Z m 3.8,55.81 C 195.8,77.84 146.6,79.71 95.21,84.04 73.42,207.7 61.35,358.6 89.71,451.7 l -26.43,31 C 191.4,492.3 321.8,495.4 445.9,489 L 416,453.4 C 435.3,347.2 429.3,202.2 416.2,83.28 365,80.22 315.9,78.18 266.9,77.79 c -22,-0.07 0,0 -22,-0.07 z M 141.1,406.6 c 54.2,-6.8 82,-10.6 106.4,-11.4 0.6,-8.5 1.7,-17 3.1,-25.2 -36.6,2.3 -70.3,-7.5 -103.5,-19.3 14.9,-28.8 42.3,-48.9 67,-48.8 4.6,0 9.1,0.6 13.4,2.1 11.2,3.6 21.3,23.7 28,40.6 2.2,-10.5 4.3,-19.5 5.2,-26.1 v -0.1 c 0.9,-6.2 -1.6,-24 -4.8,-38.7 -2.3,-10.6 -4.7,-19.9 -5.9,-24.3 -6.3,0 -11.9,-1.2 -15.6,-5 C 209,224 225.5,175.2 247.3,148 c 15.5,25.8 35.7,53.6 56,72.8 -4.4,14.8 -12.4,26.7 -27.9,32 -2.1,0.2 -4.7,0.5 -7.3,0.9 1.4,5.2 3.4,13 5.4,22.1 1.3,5.7 2.5,11.6 3.5,17.5 5.3,-4.9 11.4,-9.4 16.4,-9.6 h 1.1 c 28,2.6 59.7,29.6 67.7,69 -27.5,-12.6 -59,-5.3 -83.9,-30.2 -2.8,18.6 -10.6,46.6 -12.7,72.8 24.1,0.8 51.9,4.6 105.3,11.3 -40.55533,-6.91898 -151.01456,-21.35969 -229.8,0 z m 114.9,6.3 c -22.3,0 -45.9,3 -90.7,8.7 23.7,10.9 55.5,17.4 90.7,17.4 35.2,0 67,-6.5 90.7,-17.4 -44.8,-5.7 -68.4,-8.7 -90.7,-8.7 z"
     id="path2"
     style="fill:none;stroke:#555555;stroke-width:16;stroke-miterlimit:4;stroke-dasharray:none;stroke-opacity:1"
     sodipodi:nodetypes="cccccccccccccccccccccccccccccccccccccccccscscs" />
</svg>
