<?xml version="1.0" encoding="UTF-8" standalone="no"?>
<!-- Uploaded to: SVG Repo, www.svgrepo.com, Generator: SVG Repo Mixer Tools -->

<svg
   width="800px"
   height="800px"
   viewBox="0 0 512 512"
   version="1.1"
   id="svg4"
   sodipodi:docname="fertilizer++.svg"
   inkscape:version="1.1.2 (b8e25be833, 2022-02-05)"
   xmlns:inkscape="http://www.inkscape.org/namespaces/inkscape"
   xmlns:sodipodi="http://sodipodi.sourceforge.net/DTD/sodipodi-0.dtd"
   xmlns="http://www.w3.org/2000/svg"
   xmlns:svg="http://www.w3.org/2000/svg">
  <defs
     id="defs8" />
  <sodipodi:namedview
     id="namedview6"
     pagecolor="#ffffff"
     bordercolor="#666666"
     borderopacity="1.0"
     inkscape:pageshadow="2"
     inkscape:pageopacity="0.0"
     inkscape:pagecheckerboard="0"
     showgrid="false"
     inkscape:zoom="0.2525"
     inkscape:cx="512.87129"
     inkscape:cy="679.20792"
     inkscape:window-width="1920"
     inkscape:window-height="1001"
     inkscape:window-x="-9"
     inkscape:window-y="-9"
     inkscape:window-maximized="1"
     inkscape:current-layer="svg4" />
  <path
     fill="#000000"
     d="M 181.32791,6.2640002 C 111.1466,6.1466407 45.980477,8.1965298 46.801999,12.734452 L 64.077397,41.0104 c 46.443283,-3.990242 90.727153,-5.437683 135.089243,-5.140371 41.6237,0.273841 83.32564,2.08901 126.8271,4.764819 l 24.4109,-26.038284 C 346.88383,9.3231854 260.89804,6.3970079 181.32791,6.2640002 Z m 2.97313,43.6657628 C 145.88519,50.023652 107.39108,51.48674 67.183528,54.874534 50.135024,151.62616 40.691451,269.69037 62.880326,342.53185 l -20.678842,24.2544 c 100.241126,7.51105 202.266146,9.93649 299.362016,4.92912 l -23.39377,-27.85344 c 15.10034,-83.09092 10.40593,-196.53897 0.15648,-289.582021 -40.0589,-2.394144 -78.47475,-3.990241 -116.81236,-4.295377 -17.21281,-0.05477 0,0 -17.21281,-0.05477 z M 103.08788,307.24558 c 42.40609,-5.3203 64.15683,-8.29344 83.2474,-8.91935 0.46944,-6.6504 1.33008,-13.30081 2.42544,-19.71649 -28.63586,1.79952 -55.00275,-5.868 -80.97844,-15.10033 11.65776,-22.53312 33.09554,-38.25938 52.42083,-38.18113 3.59904,0 7.11984,0.46943 10.48416,1.64303 8.76289,2.81664 16.66513,18.5429 21.90721,31.76545 1.72129,-8.21519 3.36432,-15.2568 4.06848,-20.42064 v -0.0782 c 0.70416,-4.85088 -1.25184,-18.77761 -3.75553,-30.27889 -1.79951,-8.29344 -3.67727,-15.56977 -4.61615,-19.01233 -4.92912,0 -9.31057,-0.93888 -12.20544,-3.91199 -19.87298,-20.65537 -6.96337,-58.83651 10.09295,-80.1178 12.12721,20.18592 27.9317,41.93665 43.81443,56.95874 -3.44256,11.57953 -9.70176,20.89009 -21.82898,25.0368 -1.64304,0.15649 -3.67727,0.39121 -5.71151,0.70416 1.09535,4.06849 2.66015,10.17122 4.22495,17.29105 1.01713,4.45968 1.956,9.07585 2.73841,13.69201 4.14672,-3.83376 8.91937,-7.35456 12.83136,-7.51104 h 0.86064 c 21.90722,2.03424 46.70932,23.15905 52.9685,53.98563 -21.51601,-9.85825 -46.16161,-4.14673 -65.64338,-23.62849 -2.19072,14.55265 -8.29344,36.45985 -9.93648,56.95874 18.85585,0.62593 40.60658,3.59904 82.38676,8.84112 -31.73052,-5.41342 -118.15386,-16.71183 -179.79561,0 z m 89.8978,4.92913 c -17.44753,0 -35.91218,2.34721 -70.96371,6.80689 18.54288,8.52815 43.42322,13.61376 70.96371,13.61376 27.54049,0 52.42082,-5.08561 70.96372,-13.61376 -35.05154,-4.45968 -53.51619,-6.80689 -70.96372,-6.80689 z"
     id="path2"
     style="fill:none;stroke:#555555;stroke-width:12.5184;stroke-miterlimit:4;stroke-dasharray:none;stroke-opacity:1"
     sodipodi:nodetypes="cccccccccccccccccccccccccccccccccccccccccscscs" />
  <path
     d="m 295.25709,448.56625 h 50.74698 m 0,0 h 50.74698 m -50.74698,0 v -50.74698 m 0,50.74698 v 50.74699"
     stroke="#000000"
     stroke-width="25.3735"
     stroke-linecap="round"
     id="path4-6"
     style="stroke:#555555;stroke-opacity:1" />
  <path
     d="m 375.59667,374.35109 h 50.74698 m 0,0 h 50.74698 m -50.74698,0 V 323.6041 m 0,50.74699 v 50.74699"
     stroke="#000000"
     stroke-width="25.3735"
     stroke-linecap="round"
     id="path4-3"
     style="stroke:#555555;stroke-opacity:1" />
</svg>
