<?xml version="1.0" encoding="UTF-8" standalone="no"?>
<!-- Uploaded to: SVG Repo, www.svgrepo.com, Generator: SVG Repo Mixer Tools -->

<svg
   width="800px"
   height="800px"
   viewBox="0 0 512 512"
   version="1.1"
   id="svg4"
   sodipodi:docname="fertilizer+_white.svg"
   inkscape:version="1.1.2 (b8e25be833, 2022-02-05)"
   xmlns:inkscape="http://www.inkscape.org/namespaces/inkscape"
   xmlns:sodipodi="http://sodipodi.sourceforge.net/DTD/sodipodi-0.dtd"
   xmlns="http://www.w3.org/2000/svg"
   xmlns:svg="http://www.w3.org/2000/svg">
  <defs
     id="defs8" />
  <sodipodi:namedview
     id="namedview6"
     pagecolor="#ffffff"
     bordercolor="#666666"
     borderopacity="1.0"
     inkscape:pageshadow="2"
     inkscape:pageopacity="0.0"
     inkscape:pagecheckerboard="0"
     showgrid="false"
     inkscape:zoom="0.12625"
     inkscape:cx="400"
     inkscape:cy="400"
     inkscape:window-width="1920"
     inkscape:window-height="1001"
     inkscape:window-x="-9"
     inkscape:window-y="-9"
     inkscape:window-maximized="1"
     inkscape:current-layer="svg4" />
  <path
     fill="#000000"
     d="M 201.86071,6.9260304 C 124.26207,6.7962674 52.208664,9.0628054 53.117011,14.080332 L 72.218213,45.344711 C 123.57,40.932748 172.53414,39.332329 221.58478,39.661064 c 46.02283,0.302783 92.13217,2.309793 140.23121,5.268403 l 26.99084,-28.79022 C 384.91392,10.308535 289.84045,7.0730954 201.86071,6.9260304 Z m 3.28735,48.2807136 C 162.67211,55.310556 120.10964,56.928275 75.652624,60.674119 56.802297,167.65124 46.360651,298.19343 70.894625,378.73339 l -22.864349,26.8178 c 110.835424,8.30488 223.643264,10.98666 331.001014,5.45007 l -25.86621,-30.79722 c 16.69626,-91.87264 11.50571,-217.3108 0.17302,-320.187391 -44.29265,-2.647177 -86.7686,-4.411962 -129.15804,-4.749347 -19.032,-0.06056 0,0 -19.032,-0.06056 z M 115.35164,339.71778 c 46.88791,-5.8826 70.93744,-9.16996 92.04566,-9.86202 0.51905,-7.35327 1.47065,-14.70655 2.68178,-21.80029 -31.66233,1.98971 -60.81589,-6.48818 -89.5369,-16.69625 12.88985,-24.91461 36.59334,-42.30294 57.96109,-42.21643 3.97941,0 7.87232,0.51905 11.59221,1.81668 9.68902,3.11433 18.42644,20.50267 24.22254,35.12268 1.90321,-9.08344 3.71989,-16.86926 4.49847,-22.57885 v -0.0865 c 0.77858,-5.36356 -1.38414,-20.76218 -4.15244,-33.47901 -1.9897,-9.16996 -4.06592,-17.21531 -5.10403,-21.02171 -5.45007,0 -10.29458,-1.03811 -13.49541,-4.32544 -21.97331,-22.8384 -7.69931,-65.05483 11.15966,-88.5853 13.40891,22.31934 30.88375,46.36886 48.44509,62.9786 -3.8064,12.80335 -10.72712,23.09793 -24.13604,27.6829 -1.81669,0.17303 -4.06592,0.43255 -6.31515,0.77858 1.21112,4.49848 2.9413,11.24619 4.67148,19.11851 1.12463,4.93101 2.16272,10.03506 3.02782,15.13909 4.58498,-4.23895 9.86204,-8.13185 14.18749,-8.30487 h 0.9516 c 24.22255,2.24924 51.64593,25.60669 58.56664,59.69127 -23.79,-10.90015 -51.04035,-4.58499 -72.58111,-26.12574 -2.42225,16.09069 -9.16996,40.31322 -10.98665,62.9786 20.84869,0.69208 44.89821,3.97941 91.09406,9.77552 -35.08405,-5.98555 -130.64131,-18.47807 -198.79786,0 z m 99.39893,5.45008 c -19.29153,0 -39.70767,2.59528 -78.46373,7.52629 20.50264,9.42948 48.01253,15.05258 78.46373,15.05258 30.45119,0 57.96107,-5.6231 78.46373,-15.05258 -38.75607,-4.93101 -59.17221,-7.52629 -78.46373,-7.52629 z"
     id="path2"
     style="fill:none;stroke:#ffffff;stroke-width:13.8415;stroke-miterlimit:4;stroke-dasharray:none;stroke-opacity:1"
     sodipodi:nodetypes="cccccccccccccccccccccccccccccccccccccccccscscs" />
  <path
     d="m 362.19817,441.86199 h 56.11039 m 0,0 h 56.11041 m -56.11041,0 v -56.11041 m 0,56.11041 v 56.1104"
     stroke="#000000"
     stroke-width="28.0552"
     stroke-linecap="round"
     id="path4"
     style="stroke:#ffffff;stroke-opacity:1" />
</svg>
