<?xml version="1.0" encoding="UTF-8" standalone="no"?>
<!-- Uploaded to: SVG Repo, www.svgrepo.com, Generator: SVG Repo Mixer Tools -->

<svg
   fill="#000000"
   width="800px"
   height="800px"
   viewBox="0 0 24 24"
   version="1.1"
   id="svg6"
   sodipodi:docname="goals_white.svg"
   inkscape:version="1.1.2 (b8e25be833, 2022-02-05)"
   xmlns:inkscape="http://www.inkscape.org/namespaces/inkscape"
   xmlns:sodipodi="http://sodipodi.sourceforge.net/DTD/sodipodi-0.dtd"
   xmlns="http://www.w3.org/2000/svg"
   xmlns:svg="http://www.w3.org/2000/svg">
  <defs
     id="defs10" />
  <sodipodi:namedview
     id="namedview8"
     pagecolor="#ffffff"
     bordercolor="#666666"
     borderopacity="1.0"
     inkscape:pageshadow="2"
     inkscape:pageopacity="0.0"
     inkscape:pagecheckerboard="0"
     showgrid="false"
     inkscape:zoom="0.71417785"
     inkscape:cx="399.76037"
     inkscape:cy="401.16058"
     inkscape:window-width="1920"
     inkscape:window-height="1001"
     inkscape:window-x="-9"
     inkscape:window-y="-9"
     inkscape:window-maximized="1"
     inkscape:current-layer="svg6" />
  <g
     id="g824"
     transform="matrix(1.2,0,0,1.2,-2.4,-2.4)"
     style="fill:#ffffff;fill-opacity:1">
    <path
       d="m 5,22 h 14 c 1.103,0 2,-0.897 2,-2 V 5 C 21,3.897 20.103,3 19,3 H 17 A 1,1 0 0 0 16,2 H 8 A 1,1 0 0 0 7,3 H 5 C 3.897,3 3,3.897 3,5 v 15 c 0,1.103 0.897,2 2,2 z M 5,5 H 7 V 7 H 17 V 5 h 2 V 20 H 5 Z"
       id="path2"
       style="fill:#ffffff;fill-opacity:1" />
    <path
       d="M 11,13.586 9.207,11.793 7.793,13.207 11,16.414 16.207,11.207 14.793,9.793 Z"
       id="path4"
       style="fill:#ffffff;fill-opacity:1" />
  </g>
</svg>
