<?xml version="1.0" encoding="UTF-8" standalone="no"?>
<!-- Uploaded to: SVG Repo, www.svgrepo.com, Generator: SVG Repo Mixer Tools -->

<svg
   fill="#000000"
   width="800px"
   height="800px"
   viewBox="0 0 36 36"
   version="1.1"
   preserveAspectRatio="xMidYMid meet"
   id="svg8"
   sodipodi:docname="info_white.svg"
   inkscape:version="1.1.2 (b8e25be833, 2022-02-05)"
   xmlns:inkscape="http://www.inkscape.org/namespaces/inkscape"
   xmlns:sodipodi="http://sodipodi.sourceforge.net/DTD/sodipodi-0.dtd"
   xmlns="http://www.w3.org/2000/svg"
   xmlns:svg="http://www.w3.org/2000/svg">
  <defs
     id="defs12" />
  <sodipodi:namedview
     id="namedview10"
     pagecolor="#ffffff"
     bordercolor="#666666"
     borderopacity="1.0"
     inkscape:pageshadow="2"
     inkscape:pageopacity="0.0"
     inkscape:pagecheckerboard="0"
     showgrid="false"
     inkscape:zoom="0.505"
     inkscape:cx="400.9901"
     inkscape:cy="399.0099"
     inkscape:window-width="1920"
     inkscape:window-height="1001"
     inkscape:window-x="-9"
     inkscape:window-y="-9"
     inkscape:window-maximized="1"
     inkscape:current-layer="svg8" />
  <title
     id="title2">info-circle-solid</title>
  <path
     class="clr-i-solid clr-i-solid-path-1"
     d="M 18,0 A 18,18 0 1 0 36,18 18,18 0 0 0 18,0 Z m -3,7.725 a 3,3 0 1 1 3,3 3,3 0 0 1 -3.15,-3 z M 25.5,27 A 1.5,1.5 0 0 1 24,28.5 H 13.5 a 1.5,1.5 0 1 1 0,-3 h 3 v -9 H 15 a 1.5,1.5 0 0 1 0,-3 h 6 v 12 h 3 a 1.5,1.5 0 0 1 1.5,1.5 z"
     id="path4"
     style="stroke-width:1.5;fill:#ffffff;fill-opacity:1" />
  <rect
     x="0"
     y="0"
     width="36"
     height="36"
     fill-opacity="0"
     id="rect6" />
</svg>
