<?xml version="1.0" encoding="UTF-8" standalone="no"?>
<!-- Uploaded to: SVG Repo, www.svgrepo.com, Generator: SVG Repo Mixer Tools -->

<svg
   height="800px"
   width="800px"
   version="1.1"
   id="_x32_"
   viewBox="0 0 512 512"
   xml:space="preserve"
   sodipodi:docname="power_white.svg"
   inkscape:version="1.1.2 (b8e25be833, 2022-02-05)"
   xmlns:inkscape="http://www.inkscape.org/namespaces/inkscape"
   xmlns:sodipodi="http://sodipodi.sourceforge.net/DTD/sodipodi-0.dtd"
   xmlns="http://www.w3.org/2000/svg"
   xmlns:svg="http://www.w3.org/2000/svg"><defs
   id="defs13" /><sodipodi:namedview
   id="namedview11"
   pagecolor="#ffffff"
   bordercolor="#666666"
   borderopacity="1.0"
   inkscape:pageshadow="2"
   inkscape:pageopacity="0.0"
   inkscape:pagecheckerboard="0"
   showgrid="false"
   inkscape:zoom="1.01"
   inkscape:cx="399.50495"
   inkscape:cy="400.49505"
   inkscape:window-width="1920"
   inkscape:window-height="1001"
   inkscape:window-x="-9"
   inkscape:window-y="-9"
   inkscape:window-maximized="1"
   inkscape:current-layer="_x32_" />
<style
   type="text/css"
   id="style2">
	.st0{fill:#000000;}
</style>
<g
   id="g8"
   style="fill:#ffffff;fill-opacity:1">
	<path
   class="st0"
   d="M423.262,91.992c-16.877-15.91-43.434-15.098-59.32,1.778c-15.894,16.877-15.098,43.434,1.779,59.32   c32.082,30.213,49.754,71.238,49.754,115.5c0,87.934-71.541,159.476-159.476,159.476S96.525,356.524,96.525,268.59   c0-44.262,17.668-85.287,49.754-115.5c16.877-15.885,17.672-42.442,1.779-59.32c-15.885-16.885-42.455-17.688-59.32-1.778   C40.344,137.557,12.59,201.926,12.59,268.59C12.59,402.803,121.783,512,256,512c134.213,0,243.41-109.197,243.41-243.41   C499.41,201.926,471.656,137.557,423.262,91.992z"
   id="path4"
   style="fill:#ffffff;fill-opacity:1" />
	<path
   class="st0"
   d="M256,268.59c23.178,0,41.967-15.033,41.967-33.574V33.574C297.967,15.033,279.178,0,256,0   c-23.178,0-41.967,15.033-41.967,33.574v201.443C214.033,253.557,232.822,268.59,256,268.59z"
   id="path6"
   style="fill:#ffffff;fill-opacity:1" />
</g>
</svg>
