<?xml version="1.0" encoding="UTF-8" standalone="no"?>
<!-- Uploaded to: SVG Repo, www.svgrepo.com, Generator: SVG Repo Mixer Tools -->

<svg
   fill="#000000"
   width="800px"
   height="800px"
   viewBox="0 0 56 56"
   version="1.1"
   id="svg4"
   sodipodi:docname="reward.svg"
   inkscape:version="1.1.2 (b8e25be833, 2022-02-05)"
   xmlns:inkscape="http://www.inkscape.org/namespaces/inkscape"
   xmlns:sodipodi="http://sodipodi.sourceforge.net/DTD/sodipodi-0.dtd"
   xmlns="http://www.w3.org/2000/svg"
   xmlns:svg="http://www.w3.org/2000/svg">
  <defs
     id="defs8" />
  <sodipodi:namedview
     id="namedview6"
     pagecolor="#ffffff"
     bordercolor="#666666"
     borderopacity="1.0"
     inkscape:pageshadow="2"
     inkscape:pageopacity="0.0"
     inkscape:pagecheckerboard="0"
     showgrid="false"
     inkscape:zoom="0.505"
     inkscape:cx="399.0099"
     inkscape:cy="400.9901"
     inkscape:window-width="1920"
     inkscape:window-height="1001"
     inkscape:window-x="-9"
     inkscape:window-y="-9"
     inkscape:window-maximized="1"
     inkscape:current-layer="svg4" />
  <path
     d="M 52.400225,3.630758 C 49.261778,0.4923106 44.830983,0 39.60015,0 h -9.600056 v 15.107764 c 2.153957,-4.21536 5.846155,-6.800056 9.969355,-6.800056 4.73839,0 8.276988,3.569318 8.276988,8.36928 0,4.123068 -2.861572,7.569374 -7.015492,9.415473 H 56 V 16.400113 C 56,11.13856 55.538803,6.738485 52.400225,3.630758 Z M 24.400094,25.60015 h 0.984621 v -0.953901 c 0,-6.215454 -4.215491,-11.630739 -9.107746,-11.630739 -2.369261,0 -3.876913,1.569224 -3.876913,4.000056 0,4.153789 5.507708,8.584584 12.000038,8.584584 z m 7.200075,0 c 6.461609,0 12.000037,-4.430795 12.000037,-8.584584 0,-2.430832 -1.507783,-4.000056 -3.876913,-4.000056 -4.892385,0 -9.107745,5.415285 -9.107745,11.630739 V 25.60015 Z M 0,26.092461 h 14.769317 c -4.153919,-1.846099 -7.015491,-5.292405 -7.015491,-9.415473 0,-4.799962 3.538466,-8.36928 8.276988,-8.36928 4.123068,0 7.815398,2.584696 9.969224,6.800056 V 0 H 16.338541 C 11.16928,0 6.738485,0.4923106 3.600038,3.630758 0.4614591,6.769205 0,11.16928 0,16.307821 Z m 45.969467,14 c 1.692236,0.184715 2.646137,1.230907 2.646137,2.861703 0,1.41536 -1.138485,2.769148 -3.015304,2.522993 C 40.5232,44.707971 32.400075,38.800244 30.246249,32.030908 h -0.246155 v 23.938634 h 9.600056 c 5.230833,0 9.661628,-0.49231 12.800075,-3.630757 C 55.538803,49.200338 56,44.830983 56,39.56943 V 29.75407 H 33.200113 c 1.907801,3.938484 8.215416,9.876932 12.769354,10.338391 z M 3.600038,52.338785 c 3.138447,3.138447 7.569242,3.630757 12.830795,3.630757 h 9.569205 V 32.030908 h -0.246156 c -2.153826,6.769336 -10.27695,12.677063 -15.35392,13.446249 -1.876819,0.246155 -3.015435,-1.107633 -3.015435,-2.522993 0,-1.630796 0.923181,-2.676988 2.646268,-2.861703 4.553807,-0.461459 10.861553,-6.399907 12.769224,-10.338391 H 0 v 9.81536 c 0,5.261553 0.4614591,9.630908 3.600038,12.769355 z"
     id="path2"
     style="fill:#555555;fill-opacity:1;stroke-width:1.31283" />
</svg>
